<?xml version="1.0" encoding="utf-8"?>
<svg width="80" height="80" viewBox="0 0 80 80" fill="none" xmlns="http://www.w3.org/2000/svg">
  <g>
    <g transform="translate(8 8)">
      <path d="M0 28C10.6731 25.4308 18 20.1265 18 14C18 7.87347 10.6731 2.56923 0 0C1.09801 4.21258 1.71597 8.96759 1.71597 14C1.71597 19.0324 1.09801 23.7874 0 28L0 28Z" fill="#404040" fill-rule="evenodd" transform="translate(46 18)" />
      <path d="M18 28C7.32691 25.4308 0 20.1265 0 14C0 7.87347 7.32691 2.56923 18 0C16.902 4.21258 16.284 8.96759 16.284 14C16.284 19.0324 16.902 23.7874 18 28L18 28Z" fill="#404040" fill-rule="evenodd" transform="translate(0 18)" />
      <path d="M0 0C2.56922 10.6731 7.87347 18 14 18C20.1265 18 25.4308 10.6731 28 0C23.7874 1.09802 19.0324 1.71597 14 1.71597C8.96759 1.71597 4.21258 1.09801 0 0L0 0Z" fill="#FFD11A" fill-rule="evenodd" transform="translate(18 46)" />
      <path d="M0 18C2.56922 7.3269 7.87347 0 14 0C20.1265 0 25.4308 7.32691 28 18C23.7874 16.902 19.0324 16.284 14 16.284C8.96759 16.284 4.21258 16.902 0 18L0 18Z" fill="#FFD11A" fill-rule="evenodd" transform="translate(18 0)" />
    </g>
  </g>
</svg>