<?xml version="1.0" encoding="utf-8"?>
<svg width="92.384" height="80" viewBox="0 0 92.384 80" fill="none" xmlns="http://www.w3.org/2000/svg">
  <g>
    <path d="M24.7321 0L0 0L0 49.5155L24.7321 49.5155L24.7321 0L24.7321 0Z" fill="#FFD11A" fill-rule="evenodd" transform="matrix(0 -1 1 0 21.46 80)" />
    <path d="M24.7316 0L0 0L7.62939e-06 49.5144L24.7316 49.5144L24.7316 0L24.7316 0Z" fill="#404040" fill-rule="evenodd" transform="matrix(-0.866 0.5 -0.5 -0.866 92.384 42.88)" />
    <path d="M24.7316 -9.53674e-07L0 0L-1.90735e-06 49.5144L24.7316 49.5144L24.7316 -9.53674e-07L24.7316 -9.53674e-07Z" fill="#404040" fill-rule="evenodd" transform="matrix(0.866 0.5 -0.5 0.866 24.758 0.034)" />
  </g>
</svg>