<?xml version="1.0" encoding="utf-8"?>
<svg width="50" height="50" viewBox="0 0 50 50" fill="none" xmlns="http://www.w3.org/2000/svg">
  <g>
    <g transform="translate(5 5)">
      <path d="M0 10C0 15.5228 4.47715 20 10 20C15.5228 20 20 15.5228 20 10C20 4.47715 15.5228 0 10 0L0 0L0 10L0 10Z" fill="#FFD11A" fill-rule="evenodd" transform="translate(20 20)" />
      <path d="M20 10C20 4.47715 15.5228 0 10 0C4.47715 0 0 4.47715 0 10C0 15.5228 4.47715 20 10 20L20 20L20 10L20 10Z" fill="#FFD11A" fill-rule="evenodd" />
      <path d="M10 0C4.47715 0 0 4.47715 0 10L0 20L10 20C15.5228 20 20 15.5228 20 10C20 4.47715 15.5228 0 10 0L10 0ZM15 10C15 12.7614 12.7614 15 10 15C7.23858 15 5 12.7614 5 10C5 7.23858 7.23858 5 10 5C12.7614 5 15 7.23858 15 10L15 10Z" fill="#404040" fill-rule="evenodd" transform="translate(20 0)" />
      <path d="M10 20C15.5228 20 20 15.5228 20 10L20 0L10 0C4.47715 0 0 4.47715 0 10C0 15.5228 4.47715 20 10 20L10 20ZM15 10C15 12.7614 12.7614 15 10 15C7.23858 15 5 12.7614 5 10C5 7.23858 7.23858 5 10 5C12.7614 5 15 7.23858 15 10L15 10Z" fill="#404040" fill-rule="evenodd" transform="translate(0 20)" />
    </g>
  </g>
</svg>