<?xml version="1.0" encoding="utf-8"?>
<svg width="80" height="80" viewBox="0 0 80 80" fill="none" xmlns="http://www.w3.org/2000/svg">
  <g>
    <g transform="translate(7.999 8)">
      <path d="M0 22C0 30.8744 5.2545 38.5216 12.8221 42L0 42C0 54.1503 9.84974 64 22 64C30.8744 64 38.5216 58.7455 42 51.1779L42 64C54.1503 64 64 54.1503 64 42C64 33.1256 58.7455 25.4784 51.1779 22L64 22C64 9.84974 54.1503 0 42 0C33.1256 0 25.4784 5.2545 22 12.8221L22 0C9.84974 0 0 9.84974 0 22L0 22Z" fill="#404040" fill-rule="evenodd" />
      <path d="M20 10C20 15.5228 15.5228 20 10 20C4.47715 20 0 15.5228 0 10C0 4.47715 4.47715 0 10 0C15.5228 0 20 4.47715 20 10L20 10Z" fill="#FFD11A" fill-rule="evenodd" transform="translate(22 22)" />
    </g>
  </g>
</svg>