<?xml version="1.0" encoding="utf-8"?>
<svg width="80" height="80" viewBox="0 0 80 80" fill="none" xmlns="http://www.w3.org/2000/svg">
  <g>
    <g transform="translate(8 8)">
      <path d="M32 16C32 24.8366 24.8366 32 16 32C7.16344 32 0 24.8366 0 16C0 7.16344 7.16344 0 16 0C24.8366 0 32 7.16344 32 16L32 16Z" fill="#404040" fill-rule="evenodd" />
      <path d="M32 16C32 24.8366 24.8366 32 16 32C7.16344 32 0 24.8366 0 16C0 7.16344 7.16344 0 16 0C24.8366 0 32 7.16344 32 16L32 16Z" fill="#FFD11A" fill-rule="evenodd" transform="translate(32 0)" />
      <path d="M32 16C32 24.8366 24.8366 32 16 32C7.16344 32 0 24.8366 0 16C0 7.16344 7.16344 0 16 0C24.8366 0 32 7.16344 32 16L32 16Z" fill="#404040" fill-rule="evenodd" transform="translate(32 32)" />
      <path d="M32 16C32 24.8366 24.8366 32 16 32C7.16344 32 0 24.8366 0 16C0 7.16344 7.16344 0 16 0C24.8366 0 32 7.16344 32 16L32 16Z" fill="#FFD11A" fill-rule="evenodd" transform="translate(0 32)" />
    </g>
  </g>
</svg>